<mxfile host="Electron" modified="2024-09-29T14:51:03.082Z" agent="Mozilla/5.0 (Windows NT 10.0; Win64; x64) AppleWebKit/537.36 (KHTML, like Gecko) draw.io/22.0.3 Chrome/114.0.5735.289 Electron/25.8.4 Safari/537.36" etag="u38HMJYEUDlK3IXFO9iN" version="22.0.3" type="device">
  <diagram name="Page-1" id="E7rW3sR9BqlbRUMYZLGV">
    <mxGraphModel dx="1098" dy="820" grid="1" gridSize="10" guides="1" tooltips="1" connect="1" arrows="1" fold="1" page="1" pageScale="1" pageWidth="850" pageHeight="1100" math="0" shadow="0">
      <root>
        <mxCell id="0" />
        <mxCell id="1" parent="0" />
        <mxCell id="-H0uY5kbVFZDLHnDhxV3-1" value="AWS Cloud" style="points=[[0,0],[0.25,0],[0.5,0],[0.75,0],[1,0],[1,0.25],[1,0.5],[1,0.75],[1,1],[0.75,1],[0.5,1],[0.25,1],[0,1],[0,0.75],[0,0.5],[0,0.25]];outlineConnect=0;gradientColor=none;html=1;whiteSpace=wrap;fontSize=12;fontStyle=0;container=1;pointerEvents=0;collapsible=0;recursiveResize=0;shape=mxgraph.aws4.group;grIcon=mxgraph.aws4.group_aws_cloud;strokeColor=#232F3E;fillColor=none;verticalAlign=top;align=left;spacingLeft=30;fontColor=#232F3E;dashed=0;" vertex="1" parent="1">
          <mxGeometry x="40" y="40" width="760" height="600" as="geometry" />
        </mxCell>
        <mxCell id="-H0uY5kbVFZDLHnDhxV3-2" value="VPC" style="points=[[0,0],[0.25,0],[0.5,0],[0.75,0],[1,0],[1,0.25],[1,0.5],[1,0.75],[1,1],[0.75,1],[0.5,1],[0.25,1],[0,1],[0,0.75],[0,0.5],[0,0.25]];outlineConnect=0;gradientColor=none;html=1;whiteSpace=wrap;fontSize=12;fontStyle=0;container=1;pointerEvents=0;collapsible=0;recursiveResize=0;shape=mxgraph.aws4.group;grIcon=mxgraph.aws4.group_vpc;strokeColor=#248814;fillColor=none;verticalAlign=top;align=left;spacingLeft=30;fontColor=#AAB7B8;dashed=0;" vertex="1" parent="-H0uY5kbVFZDLHnDhxV3-1">
          <mxGeometry x="40" y="40" width="680" height="520" as="geometry" />
        </mxCell>
        <mxCell id="-H0uY5kbVFZDLHnDhxV3-3" value="Public Subnet" style="points=[[0,0],[0.25,0],[0.5,0],[0.75,0],[1,0],[1,0.25],[1,0.5],[1,0.75],[1,1],[0.75,1],[0.5,1],[0.25,1],[0,1],[0,0.75],[0,0.5],[0,0.25]];outlineConnect=0;gradientColor=none;html=1;whiteSpace=wrap;fontSize=12;fontStyle=0;container=1;pointerEvents=0;collapsible=0;recursiveResize=0;shape=mxgraph.aws4.group;grIcon=mxgraph.aws4.group_security_group;grStroke=0;strokeColor=#248814;fillColor=#E9F3E6;verticalAlign=top;align=left;spacingLeft=30;fontColor=#248814;dashed=0;" vertex="1" parent="-H0uY5kbVFZDLHnDhxV3-2">
          <mxGeometry x="40" y="40" width="280" height="200" as="geometry" />
        </mxCell>
        <mxCell id="-H0uY5kbVFZDLHnDhxV3-4" value="Private Subnet" style="points=[[0,0],[0.25,0],[0.5,0],[0.75,0],[1,0],[1,0.25],[1,0.5],[1,0.75],[1,1],[0.75,1],[0.5,1],[0.25,1],[0,1],[0,0.75],[0,0.5],[0,0.25]];outlineConnect=0;gradientColor=none;html=1;whiteSpace=wrap;fontSize=12;fontStyle=0;container=1;pointerEvents=0;collapsible=0;recursiveResize=0;shape=mxgraph.aws4.group;grIcon=mxgraph.aws4.group_security_group;grStroke=0;strokeColor=#147EBA;fillColor=#E6F2F8;verticalAlign=top;align=left;spacingLeft=30;fontColor=#147EBA;dashed=0;" vertex="1" parent="-H0uY5kbVFZDLHnDhxV3-2">
          <mxGeometry x="360" y="40" width="280" height="200" as="geometry" />
        </mxCell>
        <mxCell id="-H0uY5kbVFZDLHnDhxV3-5" value="RDS&#xa;PostgreSQL" style="sketch=0;points=[[0,0,0],[0.25,0,0],[0.5,0,0],[0.75,0,0],[1,0,0],[0,1,0],[0.25,1,0],[0.5,1,0],[0.75,1,0],[1,1,0],[0,0.25,0],[0,0.5,0],[0,0.75,0],[1,0.25,0],[1,0.5,0],[1,0.75,0]];outlineConnect=0;fontColor=#232F3E;gradientColor=#4D72F3;gradientDirection=north;fillColor=#3334B9;strokeColor=#ffffff;dashed=0;verticalLabelPosition=bottom;verticalAlign=top;align=center;html=1;fontSize=12;fontStyle=0;aspect=fixed;shape=mxgraph.aws4.resourceIcon;resIcon=mxgraph.aws4.rds;" vertex="1" parent="-H0uY5kbVFZDLHnDhxV3-4">
          <mxGeometry x="100" y="60" width="80" height="80" as="geometry" />
        </mxCell>
        <mxCell id="-H0uY5kbVFZDLHnDhxV3-6" value="Auto Scaling group" style="points=[[0,0],[0.25,0],[0.5,0],[0.75,0],[1,0],[1,0.25],[1,0.5],[1,0.75],[1,1],[0.75,1],[0.5,1],[0.25,1],[0,1],[0,0.75],[0,0.5],[0,0.25]];outlineConnect=0;gradientColor=none;html=1;whiteSpace=wrap;fontSize=12;fontStyle=0;container=1;pointerEvents=0;collapsible=0;recursiveResize=0;shape=mxgraph.aws4.groupCenter;grIcon=mxgraph.aws4.group_auto_scaling_group;grStroke=1;strokeColor=#D86613;fillColor=none;verticalAlign=top;align=center;fontColor=#D86613;dashed=1;spacingTop=25;" vertex="1" parent="-H0uY5kbVFZDLHnDhxV3-2">
          <mxGeometry x="60" y="80" width="240" height="160" as="geometry" />
        </mxCell>
        <mxCell id="-H0uY5kbVFZDLHnDhxV3-7" value="EC2 Instance" style="outlineConnect=0;dashed=0;verticalLabelPosition=bottom;verticalAlign=top;align=center;html=1;shape=mxgraph.aws3.ec2;fillColor=#F58534;gradientColor=none;" vertex="1" parent="-H0uY5kbVFZDLHnDhxV3-6">
          <mxGeometry x="40" y="60" width="76.5" height="93" as="geometry" />
        </mxCell>
        <mxCell id="-H0uY5kbVFZDLHnDhxV3-8" value="EC2 Instance" style="outlineConnect=0;dashed=0;verticalLabelPosition=bottom;verticalAlign=top;align=center;html=1;shape=mxgraph.aws3.ec2;fillColor=#F58534;gradientColor=none;" vertex="1" parent="-H0uY5kbVFZDLHnDhxV3-6">
          <mxGeometry x="140" y="60" width="76.5" height="93" as="geometry" />
        </mxCell>
        <mxCell id="-H0uY5kbVFZDLHnDhxV3-9" value="ELB" style="outlineConnect=0;dashed=0;verticalLabelPosition=bottom;verticalAlign=top;align=center;html=1;shape=mxgraph.aws3.elastic_load_balancing;fillColor=#F58534;gradientColor=none;" vertex="1" parent="-H0uY5kbVFZDLHnDhxV3-2">
          <mxGeometry x="140" y="280" width="76.5" height="93" as="geometry" />
        </mxCell>
        <mxCell id="-H0uY5kbVFZDLHnDhxV3-10" value="Internet&#xa;Gateway" style="outlineConnect=0;dashed=0;verticalLabelPosition=bottom;verticalAlign=top;align=center;html=1;shape=mxgraph.aws3.internet_gateway;fillColor=#F58534;gradientColor=none;" vertex="1" parent="-H0uY5kbVFZDLHnDhxV3-2">
          <mxGeometry x="300" y="400" width="69" height="72" as="geometry" />
        </mxCell>
        <mxCell id="-H0uY5kbVFZDLHnDhxV3-11" value="" style="edgeStyle=orthogonalEdgeStyle;html=1;endArrow=block;elbow=vertical;startArrow=none;endFill=1;strokeColor=#545B64;rounded=0;" edge="1" parent="-H0uY5kbVFZDLHnDhxV3-2" source="-H0uY5kbVFZDLHnDhxV3-9" target="-H0uY5kbVFZDLHnDhxV3-6">
          <mxGeometry width="100" relative="1" as="geometry">
            <mxPoint x="270" y="340" as="sourcePoint" />
            <mxPoint x="370" y="340" as="targetPoint" />
          </mxGeometry>
        </mxCell>
        <mxCell id="-H0uY5kbVFZDLHnDhxV3-12" value="" style="edgeStyle=orthogonalEdgeStyle;html=1;endArrow=block;elbow=vertical;startArrow=none;endFill=1;strokeColor=#545B64;rounded=0;" edge="1" parent="-H0uY5kbVFZDLHnDhxV3-2" source="-H0uY5kbVFZDLHnDhxV3-10" target="-H0uY5kbVFZDLHnDhxV3-9">
          <mxGeometry width="100" relative="1" as="geometry">
            <mxPoint x="270" y="340" as="sourcePoint" />
            <mxPoint x="370" y="340" as="targetPoint" />
          </mxGeometry>
        </mxCell>
        <mxCell id="-H0uY5kbVFZDLHnDhxV3-13" value="" style="edgeStyle=orthogonalEdgeStyle;html=1;endArrow=block;elbow=vertical;startArrow=none;endFill=1;strokeColor=#545B64;rounded=0;" edge="1" parent="-H0uY5kbVFZDLHnDhxV3-2" source="-H0uY5kbVFZDLHnDhxV3-6" target="-H0uY5kbVFZDLHnDhxV3-5">
          <mxGeometry width="100" relative="1" as="geometry">
            <mxPoint x="270" y="340" as="sourcePoint" />
            <mxPoint x="370" y="340" as="targetPoint" />
          </mxGeometry>
        </mxCell>
      </root>
    </mxGraphModel>
  </diagram>
</mxfile>
